<svg
    xmlns="http://www.w3.org/2000/svg"
    width="266"
    height="152"
    fill="none"
>
    <path
        fill="#177AE2"
        d="M49.187 80.536H0V58.373L49.178.008h23.535v59.624h12.196v20.912H72.713v18.13H49.178v-18.13l.009-.008Zm0-20.912v-30.53l-25.992 30.53h25.992ZM93.33 49.764c0-18.435 3.322-31.344 9.973-38.71C109.954 3.686 120.081 0 133.691 0c6.538 0 11.905.807 16.107 2.412 4.195 1.614 7.622 3.704 10.272 6.285 2.651 2.582 4.736 5.293 6.264 8.141 1.527 2.848 2.748 6.164 3.677 9.956 1.81 7.238 2.716 14.781 2.716 22.632 0 17.604-2.983 30.481-8.947 38.646-5.964 8.165-16.237 12.24-30.824 12.24-8.179 0-14.782-1.3-19.817-3.905-5.035-2.606-9.173-6.414-12.398-11.45-2.344-3.573-4.162-8.454-5.471-14.659-1.302-6.196-1.956-13.046-1.956-20.55l.016.017Zm26.775.065c0 12.352 1.091 20.792 3.282 25.31 2.19 4.518 5.358 6.785 9.512 6.785 2.74 0 5.116-.96 7.128-2.88 2.013-1.92 3.492-4.954 4.445-9.101.954-4.147 1.423-10.61 1.423-19.388 0-12.877-1.091-21.534-3.282-25.971-2.19-4.438-5.471-6.648-9.843-6.648-4.373 0-7.686 2.259-9.674 6.785-1.989 4.526-2.983 12.893-2.983 25.108h-.008ZM230.27 80.536h-49.179V58.373L230.27.008h23.534v59.624H266v20.912h-12.196v18.13H230.27V80.536Zm0-20.912v-30.53l-25.992 30.53h25.992Z"
        />
    <g clipPath="url(#a)">
    <path
        fill="#3E76BB"
        d="M163.862 143.812c1.412-.248 3.859-.692 5.77-1.111 1.148-.252 1.771-.538 2.107-.788.011.042.022.082.029.12a.407.407 0 0 1-.272.468 68.251 68.251 0 0 1-7.411 1.98.286.286 0 0 1-.34-.357c.031-.106.07-.211.117-.312Z"
    />
    <path
        fill="#190D44"
        d="M169.633 142.705c-1.91.419-4.357.862-5.768 1.11.907-2.022 4.91-4.287 4.91-4.287l1.215-.323c1.162.982 1.592 2.095 1.749 2.714-.335.25-.959.534-2.106.786Z"
    />
    <path
        fill="#F4D3C1"
        d="m169.663 137.174.493 2.276a.532.532 0 0 1-.309.599 2.071 2.071 0 0 1-.933.167.628.628 0 0 1-.534-.357l-1.052-2.24 2.335-.445Z"
    />
    <path
        fill="#3E76BB"
        d="M149.184 144.646c1.428.124 3.908.323 5.863.409 1.175.052 1.852-.063 2.241-.218 0 .043 0 .085-.004.123a.398.398 0 0 1-.384.38 68.861 68.861 0 0 1-7.675.008.287.287 0 0 1-.236-.431 2.58 2.58 0 0 1 .195-.271Z"
    />
    <path
        fill="#190D44"
        d="M155.047 145.056c-1.955-.085-4.435-.285-5.863-.408 1.404-1.717 5.863-2.875 5.863-2.875h1.259c.866 1.244.992 2.428.982 3.065-.389.155-1.066.27-2.241.218Z"
    />
    <path
        fill="#F4D3C1"
        d="m156.518 139.725-.118 2.323a.528.528 0 0 1-.455.499c-.317.047-.641.02-.946-.079a.622.622 0 0 1-.424-.482l-.432-2.431 2.375.17Z"
    />
    <path
        fill="#177AE2"
        fillOpacity=".22"
        d="M132.445 151c33.396 0 60.468-1.571 60.468-3.511 0-1.939-27.072-3.51-60.468-3.51-33.395 0-60.467 1.571-60.467 3.51 0 1.94 27.072 3.511 60.467 3.511Z"
        opacity=".42"
    />
    <path
        fill="#1158A3"
        d="M93.6 123.477h12.107v20.377c0 .527 3.142.754 3.027 1.127-.114.372-.838.86-1 .86H94.209c-.162 0-.317-.209-.431-.582-.115-.372-.179-.878-.179-1.405v-20.377ZM93.808 123.436h28.346l-3.487-4.438c-.383-.487-1.331-.881-2.12-.881H91.055c-.786 0-1.117.394-.733.881l3.486 4.438Z"
    />
    <path
        fill="#177AE2"
        d="M133.864 123.436h-28.342l3.487-2.893c.383-.311 1.331-.574 2.12-.574h25.489c.789 0 1.117.257.733.574l-3.487 2.893ZM105.707 123.477h28.157v20.357c0 .533-.212 1.043-.591 1.419a2.019 2.019 0 0 1-1.426.588H107.53c-.535 0-1.39.029-1.823 0v-22.364Z"
    />
    <path
        fill="#fff"
        d="M97.326 123.436v14.108l.98-.769.689.769.599-.856.614.856.854-.645.942.645v-14.108h-4.678Z"
        opacity=".5"
    />
    <path
        stroke="#B2CDE9"
        strokeMiterlimit="10"
        d="M103.666 92.667 98.63 88.46M106.277 94.847l-1.535-1.28"
    />
    <path
        fill="#C8DEF4"
        d="m121.365 103.649 16.616-20.653-22.124-18.473L101.2 81.25l-2.184 4.184a1.165 1.165 0 0 0-.162 1.34c.077.14.182.264.31.363l19.959 16.668c.324.26.735.388 1.151.359a1.65 1.65 0 0 0 1.091-.515Z"
    />
    <path
        fill="#fff"
        d="m109.969 88.42-2.392 3.83.964.205.324.89.643.037.293.757.786.23.602.949 2.392-3.83-3.612-3.068Z"
        opacity=".5"
    />
    <path
        fill="#B2CDE9"
        d="m137.258 82.39-14.901 16.532 6.168.456 14.67-16.727-5.937-.26ZM109.922 64.266l-14.904 16.53 6.172.454 14.667-16.724-5.935-.26Z"
    />
    <path
        fill="#000"
        d="m132.67 87.483 4.588-5.093-21.401-17.865-2.741 6.56 19.554 16.398Z"
        opacity=".1"
    />
    <path
        fill="#000"
        d="m101.19 81.249 14.667-16.724-2.741 6.56-10.326 11.5-1.6-1.336Z"
        opacity=".2"
    />
    <path
        fill="#F4D3C1"
        d="M149.552 53.885c.138 1.643.546 4.652 1.522 5.347 0 0-.23 1.975-3.742 2.48-3.848.565-2.121-1.63-2.121-1.63 2.024-.807 1.741-2.348 1.16-3.75l1.485-1.694c.571-.626 1.622-1.594 1.696-.753Z"
    />
    <path
        fill="#FFC3BD"
        d="M155.567 59.592c.758.691 1.413 1.383 2.093 2.106.68.722 1.31 1.47 1.921 2.267.638.81 1.218 1.664 1.734 2.556.282.491.526 1.003.73 1.532.053.146.106.285.149.443.052.16.094.323.128.487l.053.258.038.285c.035.261.035.526 0 .788a3.278 3.278 0 0 1-.537 1.377 4.57 4.57 0 0 1-.717.822c-.436.393-.913.74-1.422 1.033-.897.51-1.836.945-2.807 1.3a33.969 33.969 0 0 1-5.67 1.55l-.545-1.86c1.693-.73 3.408-1.518 4.989-2.358.77-.402 1.511-.856 2.218-1.359a5.02 5.02 0 0 0 .808-.713c.073-.079.135-.167.184-.264.025-.052 0-.046-.032.066-.021.207-.018.046-.068-.066a4.937 4.937 0 0 0-.169-.412 9.806 9.806 0 0 0-.564-.983 23.535 23.535 0 0 0-1.559-2.05 53.509 53.509 0 0 0-1.8-2.01c-.621-.66-1.272-1.328-1.871-1.942l2.716-2.853Z"
    />
    <path
        fill="#FFC3BD"
        d="m151.429 74.24-2.455.738 1.578 2.58s1.451-.595 1.772-1.82l-.895-1.498ZM147.983 75.892l.967 2.128 1.588-.459-1.579-2.58-.976.911Z"
    />
    <path
        fill="#F1EEEE"
        d="M149.816 60.291c-.233 2.482 8.935 9.457 8.935 9.457l-2.351 1.55 2.183 4.207 5.087-4.988s-4.788-9.599-7.485-11.326c-2.901-1.846-6.075-1.982-6.369 1.1Z"
    />
    <path
        fill="#F1EEEE"
        d="M141.178 60.094s-1.946 63.055 3.468 81.72l32.019-5.583c-.197-1.892-21.085-66.162-21.16-75.184a3.222 3.222 0 0 0-2.126-3.002 3.262 3.262 0 0 0-1.286-.193c-.399.022-.811.05-1.219.09a51.54 51.54 0 0 0-5.851.86 26.486 26.486 0 0 0-3.845 1.292Z"
    />
    <path
        fill="#000"
        d="m140.841 66.092.047-.053 3.237.285c.493 2.078-1.31 4.913-2.261 6.228-.458-2.133-.8-4.29-1.023-6.46Z"
        opacity=".2"
    />
    <path
        fill="#F4D3C1"
        d="M149.213 50.175c.573 2.503 1.035 3.94.159 5.583-1.317 2.447-5.676 1.966-6.989-.31-1.185-2.053-.952-5.558 1.182-7.245a3.533 3.533 0 0 1 3.375-.575 3.522 3.522 0 0 1 2.273 2.547Z"
    />
    <path
        fill="#F4D3C1"
        d="M145.505 51.887c.179.612.15 1.266-.081 1.86-.312.78-1.005.621-1.366-.052-.312-.62-.549-1.746-.019-2.307.53-.562 1.241-.236 1.466.499Z"
    />
    <path
        fill="#FFC3BD"
        d="M143.457 64.455c-.486.77-.979 1.46-1.49 2.171a52.02 52.02 0 0 1-1.594 2.078 39.305 39.305 0 0 1-3.608 3.914c-.349.31-.671.62-1.048.903l-.275.22-.137.109c-.05.04-.071.062-.174.136a3.94 3.94 0 0 1-1.008.515 5.885 5.885 0 0 1-1.724.31 9.673 9.673 0 0 1-1.488-.065 18.82 18.82 0 0 1-5.224-1.47l.54-1.861c1.595.188 3.202.265 4.809.23a9.552 9.552 0 0 0 1.06-.115 2.56 2.56 0 0 0 .761-.236c.075-.04.116-.08.106-.09-.009-.01.041-.04.069-.068l.106-.096.209-.196c.28-.248.546-.549.82-.822a32.975 32.975 0 0 0 1.584-1.799c.509-.63 1.023-1.262 1.522-1.913.499-.651.983-1.312 1.469-1.973.487-.66.961-1.355 1.41-1.997l3.305 2.115Z"
    />
    <path
        fill="#F1EEEE"
        d="M145.269 63.633c1.048 3.412-10.856 11.882-10.856 11.882l-7.581-.056.103-4.816 4.965.74s5.467-7.772 7.644-10.126c2.7-2.909 4.927-.22 5.725 2.376Z"
    />
    <path
        fill="#F4D3C1"
        d="m127.145 71.528-3.204-.583.337 2.755s1.666.93 2.873-.525l-.006-1.647ZM122.706 71.566l.692 1.988.874.149-.337-2.758-1.229.62Z"
    />
    </g>
    <path
    fill="#190D44"
    d="M149.753 55.818s.184.12-1.167-.026c-1.35-.146-2.928-3.041-3.496-3.205-.569-.163-.587-.496-.587-.496l-.576-1.242s-1.123-.871-1.966-1.473c-.843-.601 1.794-4.522 6.142-3.23 0 0 4.277 1.25 4.249 3.113-.028 1.864-1.905 5.597-2.599 6.559Z"
    />
    <path
    fill="#F4D3C1"
    d="M147.484 53.422c-.331.622-1.093.867-1.698.55-.606-.316-.829-1.075-.496-1.698.333-.623 1.093-.868 1.699-.551.605.317.827 1.077.495 1.699Z"
    />
    <path
    fill="#190D44"
    d="M149.92 48.335s3.855-.511.285 6.254l-.285-6.254ZM146.776 49.52s-3.815.11-5.845.407c0 0-2.137-.284-1.597-1.66.428-1.085 2.166-.677 2.166-.677s.268-1.381.892-1.802c.748-.503 2.93-1.568 5.724 1.207l-1.34 2.524Z"
    />
    <defs>
    <clipPath id="a">
        <path fill="#fff" d="M71.978 44.772h122.81v106.23H71.978z" />
    </clipPath>
    </defs>
</svg>